<?xml version="1.0" encoding="UTF-8"?>
<svg id="Layer_1" data-name="Layer 1" xmlns="http://www.w3.org/2000/svg" viewBox="0 0 350 100">
  <defs>
    <style>
      .cls-1 {
        fill: #366ee7;
      }

      .cls-2 {
        fill: #ebf4fc;
      }

      .cls-3 {
        fill: #034987;
      }

      .cls-4 {
        fill: #daeafd;
      }
    </style>
  </defs>
  <rect class="cls-2" x="1.92" y="1.67" width="346.17" height="96.65" rx="21.97" ry="21.97"/>
  <path class="cls-3" d="m326.11,99.4H23.89c-12.71,0-23.04-10.34-23.04-23.04V23.64C.85,10.94,11.18.6,23.89.6h302.23c12.71,0,23.04,10.34,23.04,23.04v52.71c0,12.71-10.34,23.04-23.04,23.04ZM23.89,2.75C12.36,2.75,2.99,12.12,2.99,23.64v52.71c0,11.52,9.38,20.9,20.9,20.9h302.23c11.52,0,20.9-9.38,20.9-20.9V23.64c0-11.52-9.38-20.9-20.9-20.9H23.89Z"/>
  <g>
    <path class="cls-3" d="m113.29,16.12c1.78,1.82,2.67,4.4,2.67,7.72,0,3.5-.9,6.22-2.68,8.15-1.79,1.94-4.3,2.9-7.54,2.9h-5.08v8.61h-5.77V13.39h10.85c3.26,0,5.78.91,7.56,2.73Zm-12.64,2.9v10.2h4.78c1.63,0,2.88-.44,3.74-1.31.86-.88,1.3-2.16,1.3-3.85s-.43-2.92-1.3-3.76c-.86-.85-2.11-1.27-3.74-1.27h-4.78Z"/>
    <path class="cls-3" d="m137.41,22.51c1.3,1.61,1.95,3.76,1.95,6.45v14.54h-5.62v-12.61c0-1.46-.35-2.62-1.04-3.46-.69-.85-1.64-1.27-2.83-1.27-1.39.03-2.49.6-3.31,1.7-.82,1.1-1.22,2.52-1.22,4.24v11.4h-5.62V11.58h5.62v12.86c.68-1.43,1.6-2.52,2.76-3.25,1.16-.73,2.5-1.1,4.04-1.1,2.22,0,3.97.8,5.28,2.41Z"/>
    <path class="cls-3" d="m155.58,43.5v-2.71c-1.34,2.01-3.4,3.01-6.17,3.01-2.07,0-3.71-.67-4.93-2-1.22-1.33-1.83-3.08-1.83-5.23s.65-3.88,1.95-5.1c1.3-1.22,3.15-1.84,5.53-1.87h5.41v-.43c0-1.23-.35-2.19-1.04-2.86-.69-.67-1.71-1.01-3.05-1.01-1.83,0-3.77.67-5.84,2.02l-1.75-4.56c1.56-.92,3.02-1.59,4.38-2.02,1.36-.43,2.86-.64,4.49-.64,2.63,0,4.67.73,6.12,2.19,1.45,1.46,2.19,3.5,2.21,6.11l.04,15.1h-5.51Zm-1.53-5.44c.85-.67,1.35-1.51,1.5-2.52v-2.02h-4.42c-1.1,0-1.91.21-2.43.62-.52.42-.79,1.08-.79,2s.27,1.6.82,2.13c.55.53,1.3.8,2.25.8,1.19,0,2.22-.34,3.07-1.01Z"/>
    <path class="cls-3" d="m174.26,21.24c1.11-.76,2.38-1.14,3.82-1.14v6.24c-.2-.03-.47-.04-.84-.04-1.66,0-2.98.49-3.98,1.46-1,.98-1.56,2.29-1.68,3.96v11.79h-5.62v-23.15h5.62v4.17c.68-1.43,1.58-2.53,2.68-3.29Z"/>
    <path class="cls-3" d="m212.32,22.49c1.28,1.59,1.92,3.75,1.92,6.47v14.54h-5.59v-12.61c0-1.49-.34-2.65-1.02-3.49-.68-.83-1.61-1.25-2.78-1.25-1.34.03-2.4.59-3.18,1.68-.78,1.09-1.17,2.5-1.17,4.22v11.44h-5.59v-12.61c0-1.46-.33-2.62-1-3.46-.67-.85-1.59-1.27-2.76-1.27-1.34.03-2.4.59-3.2,1.68-.79,1.09-1.19,2.5-1.19,4.22v11.44h-5.62v-23.15h5.62v4.04c.68-1.43,1.58-2.51,2.7-3.23,1.12-.72,2.43-1.08,3.95-1.08,1.63,0,3.02.47,4.18,1.4,1.16.93,1.98,2.25,2.46,3.94.63-1.78,1.55-3.11,2.76-4,1.21-.89,2.65-1.33,4.33-1.33,2.17,0,3.89.8,5.17,2.39Z"/>
    <path class="cls-3" d="m230.82,43.5h-5.95l-10.04-30.12h6.21l6.98,22.72,7.01-22.72h5.95l-10.15,30.12Z"/>
    <path class="cls-3" d="m257.13,23.37c1.64,2.15,2.46,5.15,2.46,8.99,0,.69-.01,1.22-.04,1.59h-14.1c.34,1.46.96,2.6,1.84,3.42.89.82,1.97,1.23,3.23,1.23.93,0,1.81-.21,2.67-.62.85-.42,1.62-1.03,2.3-1.83l2.96,3.53c-1,1.32-2.21,2.33-3.63,3.03-1.42.7-3.01,1.05-4.77,1.05-2.07,0-3.88-.49-5.42-1.46-1.55-.97-2.74-2.35-3.58-4.13-.84-1.78-1.26-3.83-1.26-6.15s.43-4.42,1.28-6.22c.85-1.79,2.04-3.18,3.58-4.17,1.53-.99,3.29-1.48,5.26-1.48,3.16,0,5.57,1.08,7.21,3.23Zm-2.83,6.67c-.05-1.52-.46-2.74-1.24-3.66s-1.81-1.38-3.1-1.38c-1.22,0-2.23.45-3.05,1.36s-1.33,2.13-1.55,3.68h8.95Z"/>
    <path class="cls-3" d="m275.45,42.21c-.73.52-1.54.91-2.43,1.18s-1.78.41-2.68.41c-1.83,0-3.31-.62-4.46-1.85-1.14-1.23-1.72-3-1.72-5.29v-10.71h-2.74v-4.56h2.74v-6.37h5.59v6.37h5.33v4.6l-5.33-.04v9.59c0,1.78.6,2.67,1.79,2.67.83,0,1.74-.29,2.74-.86l1.17,4.86Z"/>
    <path class="cls-3" d="m297.36,16.12c1.78,1.82,2.67,4.4,2.67,7.72,0,3.5-.89,6.22-2.68,8.15-1.79,1.94-4.3,2.9-7.54,2.9h-5.08v8.61h-5.77V13.39h10.85c3.26,0,5.78.91,7.56,2.73Zm-12.64,2.9v10.2h4.78c1.63,0,2.88-.44,3.74-1.31s1.3-2.16,1.3-3.85-.43-2.92-1.3-3.76c-.86-.85-2.11-1.27-3.74-1.27h-4.78Z"/>
    <path class="cls-3" d="m315,43.5v-2.71c-1.34,2.01-3.4,3.01-6.17,3.01-2.07,0-3.71-.67-4.93-2-1.22-1.33-1.83-3.08-1.83-5.23s.65-3.88,1.95-5.1c1.3-1.22,3.15-1.84,5.53-1.87h5.41v-.43c0-1.23-.35-2.19-1.04-2.86-.69-.67-1.71-1.01-3.05-1.01-1.83,0-3.77.67-5.84,2.02l-1.75-4.56c1.56-.92,3.02-1.59,4.38-2.02,1.36-.43,2.86-.64,4.49-.64,2.63,0,4.67.73,6.12,2.19,1.45,1.46,2.19,3.5,2.21,6.11l.04,15.1h-5.51Zm-1.53-5.44c.85-.67,1.35-1.51,1.5-2.52v-2.02h-4.42c-1.1,0-1.91.21-2.43.62-.52.42-.79,1.08-.79,2s.27,1.6.82,2.13c.55.53,1.3.8,2.25.8,1.19,0,2.21-.34,3.07-1.01Z"/>
    <path class="cls-3" d="m337.53,42.21c-.73.52-1.54.91-2.43,1.18s-1.78.41-2.68.41c-1.83,0-3.31-.62-4.46-1.85-1.14-1.23-1.72-3-1.72-5.29v-10.71h-2.74v-4.56h2.74v-6.37h5.59v6.37h5.33v4.6l-5.33-.04v9.59c0,1.78.6,2.67,1.79,2.67.83,0,1.74-.29,2.74-.86l1.17,4.86Z"/>
  </g>
  <g>
    <path class="cls-3" d="m125.15,85.62h-6.66l-1.15,3.03h-3.36l6.27-15.6h3.36l6.16,15.6h-3.48l-1.13-3.03Zm-1.05-2.83l-2.27-6.06-2.29,6.06h4.56Z"/>
    <path class="cls-3" d="m141.67,74.47c1,.94,1.51,2.28,1.51,4,0,1.81-.51,3.22-1.52,4.22-1.01,1-2.43,1.5-4.26,1.5h-2.87v4.46h-3.26v-15.6h6.12c1.84,0,3.26.47,4.27,1.42Zm-7.13,1.5v5.28h2.7c.92,0,1.62-.23,2.11-.68.49-.45.73-1.12.73-1.99s-.24-1.51-.73-1.95c-.49-.44-1.19-.66-2.11-.66h-2.7Z"/>
    <path class="cls-3" d="m148.51,88.65h-3.26v-15.6h3.26v15.6Z"/>
    <path class="cls-1" d="m166.37,80.78h2.82v6c-.77.61-1.69,1.1-2.76,1.47-1.07.37-2.1.56-3.09.56-1.43,0-2.73-.35-3.91-1.05-1.18-.7-2.1-1.65-2.77-2.86s-1.01-2.56-1.01-4.04.34-2.83,1.03-4.03,1.63-2.15,2.83-2.84c1.2-.69,2.54-1.04,4.01-1.04,1.06,0,2.1.21,3.13.61,1.03.41,1.92.96,2.66,1.66l-1.83,2.52c-.54-.54-1.15-.96-1.86-1.27-.7-.31-1.4-.47-2.1-.47-.84,0-1.6.22-2.3.65-.69.43-1.24,1.01-1.64,1.75-.4.74-.6,1.56-.6,2.46s.2,1.73.61,2.47.96,1.33,1.65,1.76c.69.43,1.46.65,2.3.65.43,0,.89-.07,1.38-.22.49-.15.98-.36,1.44-.62v-4.1Z"/>
    <path class="cls-1" d="m183.03,75.97h-7.73v3.39h6.97v2.92h-6.97v3.45h7.96v2.92h-11.22v-15.6h10.99v2.92Z"/>
    <path class="cls-1" d="m198.88,88.65h-2.97l-6.99-10.01v10.01h-3.11v-15.6h2.97l7.01,10.03v-10.03h3.09v15.6Z"/>
    <path class="cls-1" d="m213.05,75.97h-7.73v3.39h6.97v2.92h-6.97v3.45h7.96v2.92h-11.22v-15.6h10.99v2.92Z"/>
    <path class="cls-1" d="m224.7,88.65l-2.29-4.48-.31.02h-3.01v4.46h-3.26v-15.6h6.27c1.88,0,3.34.47,4.37,1.42s1.55,2.28,1.55,4c0,1.2-.23,2.23-.69,3.09s-1.13,1.5-2.01,1.95l3.07,5.15h-3.69Zm-2.6-7.4c.91,0,1.6-.23,2.09-.68.49-.45.73-1.12.73-1.99s-.24-1.51-.73-1.95c-.49-.44-1.19-.66-2.09-.66h-3.01v5.28h3.01Z"/>
    <path class="cls-1" d="m234.01,88.65h-3.26v-15.6h3.26v15.6Z"/>
    <path class="cls-1" d="m246.96,73.64c1.02.47,1.88,1.1,2.6,1.88l-1.9,2.5c-.5-.62-1.08-1.12-1.75-1.48-.67-.36-1.34-.55-2-.55-.81,0-1.55.21-2.23.63-.67.42-1.2,1-1.59,1.73s-.58,1.54-.58,2.43.19,1.71.58,2.44.91,1.32,1.59,1.74c.67.42,1.42.64,2.23.64.65,0,1.3-.16,1.97-.49.67-.33,1.26-.77,1.78-1.34l1.92,2.25c-.77.86-1.67,1.54-2.71,2.04-1.04.5-2.08.75-3.12.75-1.42,0-2.7-.35-3.86-1.05-1.15-.7-2.06-1.66-2.72-2.88-.66-1.22-.99-2.57-.99-4.06s.34-2.83,1.01-4.02c.67-1.2,1.59-2.14,2.76-2.83,1.17-.69,2.47-1.04,3.92-1.04,1.04,0,2.08.23,3.09.7Z"/>
    <path class="cls-1" d="m264.7,73.35c.97.3,1.82.72,2.55,1.24l-1.26,2.92c-.76-.49-1.55-.88-2.37-1.17-.83-.29-1.53-.43-2.12-.43s-1.01.11-1.34.32c-.33.22-.5.53-.5.95,0,.37.12.68.37.94s.56.46.94.62c.38.16.9.35,1.58.56.99.3,1.8.6,2.44.91.64.31,1.19.78,1.65,1.39.46.62.69,1.43.69,2.44s-.24,1.85-.73,2.55c-.49.71-1.16,1.24-2.01,1.62-.85.37-1.82.56-2.91.56-1.17,0-2.32-.22-3.44-.67-1.13-.45-2.1-1.05-2.93-1.8l1.3-2.88c.73.7,1.57,1.26,2.53,1.69.96.43,1.82.65,2.59.65.67,0,1.2-.13,1.58-.39.38-.26.57-.63.57-1.1,0-.39-.13-.71-.38-.97-.25-.26-.57-.46-.95-.61s-.92-.33-1.62-.56c-.99-.3-1.8-.59-2.43-.89-.63-.3-1.18-.75-1.63-1.35-.45-.6-.68-1.39-.68-2.37s.23-1.75.7-2.44c.47-.69,1.12-1.23,1.96-1.6.84-.38,1.81-.57,2.93-.57.99,0,1.97.15,2.94.46Z"/>
    <path class="cls-1" d="m282.38,82.12c0,1.37-.26,2.55-.78,3.55s-1.27,1.78-2.25,2.32c-.98.54-2.12.81-3.44.81s-2.47-.27-3.46-.81c-.99-.54-1.75-1.32-2.29-2.32s-.8-2.19-.8-3.55v-9.07h3.26v9.07c0,1.11.3,1.99.91,2.64.6.65,1.4.97,2.39.97s1.76-.32,2.34-.97c.58-.65.88-1.53.88-2.64v-9.07h3.26v9.07Z"/>
    <path class="cls-1" d="m288.55,88.65h-3.26v-15.6h3.26v15.6Z"/>
    <path class="cls-1" d="m302.38,76.04h-4.41v12.61h-3.26v-12.61h-4.39v-2.99h12.06v2.99Z"/>
    <path class="cls-1" d="m315.12,75.97h-7.73v3.39h6.97v2.92h-6.97v3.45h7.96v2.92h-11.22v-15.6h10.99v2.92Z"/>
  </g>
  <path class="cls-1" d="m286.37,50.1c.27-.17.57-.22.88-.22,1.37,0,2.75,0,4.12.01.41,0,.74-.33.74-.74v-1.03c0-.41-.33-.74-.74-.74h-152.45c-.41,0-.74.33-.74.74v1.03c0,.41.33.74.74.74,1.37,0,2.75,0,4.12-.01.31,0,.61.05.88.22.44.29.7.83.61,1.28-.12.58-.47.95-1.04,1.12-.19.05-.38.06-.57.06h-4c-.41,0-.74.33-.74.74s.33.74.74.74h.99c.32,0,.61.05.88.22.44.29.71.83.61,1.28-.12.57-.47.95-1.04,1.11-.18.06-.37.07-.57.07h-.87c-.41,0-.74.33-.74.74s.33.74.74.74h4.12c.31,0,.61.05.88.22.44.28.7.82.61,1.28-.12.57-.47.95-1.04,1.11-.19.05-.38.07-.57.07h-4c-.41,0-.74.33-.74.74s.33.74.74.74h.99c.32,0,.61.04.88.22.44.28.71.82.61,1.27-.12.58-.47.96-1.04,1.12-.18.05-.37.07-.57.07h-.87c-.41,0-.74.33-.74.74v1.01c0,.41.33.74.74.74h152.45c.41,0,.74-.33.74-.74v-1.01c0-.41-.33-.74-.74-.74h-.87c-.2,0-.39-.02-.57-.07-.57-.16-.92-.54-1.04-1.12-.1-.45.17-.99.61-1.27.27-.18.56-.22.88-.22h.99c.41,0,.74-.33.74-.74s-.33-.74-.74-.74h-4c-.19,0-.38-.02-.57-.07-.57-.16-.92-.54-1.04-1.11-.09-.46.17-1,.61-1.28.27-.17.57-.22.88-.22h4.12c.41,0,.74-.33.74-.74s-.33-.74-.74-.74h-.87c-.2,0-.39-.01-.57-.07-.57-.16-.92-.54-1.04-1.11-.1-.45.17-.99.61-1.28.27-.17.56-.22.88-.22h.99c.41,0,.74-.33.74-.74s-.33-.74-.74-.74h-4c-.19,0-.38-.01-.57-.06-.57-.17-.92-.54-1.04-1.12-.09-.45.17-.99.61-1.28Z"/>
  <g>
    <g>
      <path class="cls-3" d="m82.5,84.43c.01,2.48-1.89,4.48-4.48,4.46-7.21-.02-14.43,0-21.64-.01-.49,0-.94.13-1.38.36-1.85,1.01-3.69,2.01-5.55,2.99-1.38.74-2.76.72-4.14-.01-1.86-1-3.72-2-5.57-3.02-.4-.2-.81-.33-1.27-.33-7.25.01-14.51.01-21.76,0-1.3,0-2.42-.42-3.32-1.41-.69-.75-1.05-1.64-1.05-2.67v-11.45c0-6.04.02-12.1-.01-18.15-.01-1.64,1.16-2.97,2.42-3.43.75-.28,1.51-.28,2.28-.27.54,0,.49.04.49-.49v-3.4c.01-2.09,1.79-3.93,3.86-4.07.37-.02.74-.04,1.11-.04-.42.68-.66,1.47-.66,2.32,0,.12,0,.24.02.36-.19,0-.39.02-.57.07-.66.21-1.09.76-1.13,1.48v31.27c0,.76.23,1.41.87,1.88.22.16.46.25.72.25h.54c5.93,0,11.88.02,17.82-.01,1.23-.01,2.36.24,3.47.76.72.34,1.44.68,2.15,1.03q.34.17.34-.2v-25.59q0-.55.53-.63c.62-.07,1.22-.17,1.82-.33.24-.06.34,0,.33.25-.01.16-.01.31-.01.47v25.79s.01.1,0,.14c-.01.19.06.23.24.13.81-.42,1.64-.81,2.48-1.18.94-.42,1.91-.66,2.96-.65,6.06.02,12.12.01,18.18.01.28,0,.54.02.81-.06.6-.19,1.09-.84,1.13-1.56.01-.16.01-.31.01-.47v-31.06c0-.46-.06-.89-.37-1.27-.39-.45-.9-.55-1.46-.55h-3.16c-.12-.98-.46-1.89-.97-2.68,1.4.01,2.8,0,4.2.01,1.68,0,3.02.65,3.91,2.11.36.6.55,1.27.58,1.97.02,1.16.05,2.33.06,3.49.01.43,0,.43.45.43.66,0,1.33-.02,1.98.16,1.58.43,2.73,1.92,2.71,3.55-.02,9.73-.04,19.48.01,29.22Z"/>
      <path class="cls-1" d="m61.71,62.35c2.54,0,5.07,0,7.61,0,.32,0,.61.05.88.22.44.28.71.83.61,1.28-.12.58-.47.96-1.04,1.12-.18.05-.38.07-.57.07-5.03,0-10.06,0-15.1,0-.46,0-.88-.1-1.2-.45-.36-.4-.44-.87-.23-1.36.23-.53.65-.83,1.23-.85.67-.02,1.34,0,2.02,0,1.93,0,3.86,0,5.79,0Z"/>
      <path class="cls-1" d="m33.18,62.35c2.56,0,5.13,0,7.69,0,.87,0,1.5.71,1.37,1.52-.1.64-.66,1.09-1.4,1.15-.09,0-.17,0-.26,0-5,0-10.01,0-15.01,0-.27,0-.54-.02-.79-.13-.56-.25-.88-.84-.76-1.41.12-.6.67-1.09,1.29-1.13.11,0,.23,0,.35,0,2.51,0,5.01,0,7.52,0Z"/>
      <path class="cls-1" d="m61.72,72.73c2.53,0,5.05,0,7.58,0,.47,0,.89.12,1.21.49.59.69.29,1.75-.59,2.07-.22.08-.44.11-.68.11-5.06,0-10.12,0-15.18,0-.61,0-1.12-.22-1.38-.8-.38-.85.26-1.79,1.23-1.86.11,0,.23,0,.35,0,2.49,0,4.97,0,7.46,0Z"/>
      <path class="cls-1" d="m61.68,67.54c2.54,0,5.07,0,7.61,0,.39,0,.76.07,1.07.35.77.7.52,1.88-.47,2.22-.21.07-.43.11-.65.11-5.06,0-10.12,0-15.18,0-.76,0-1.32-.39-1.46-1.02-.19-.84.45-1.62,1.36-1.65.39-.01.79,0,1.18,0,2.18,0,4.36,0,6.54,0Z"/>
      <path class="cls-1" d="m33.14,72.73c2.53,0,5.05,0,7.58,0,.33,0,.66.04.94.23.46.32.69.75.59,1.31-.11.56-.48.9-1.02,1.06-.17.05-.36.07-.54.07-5.05,0-10.1,0-15.15,0-.61,0-1.12-.2-1.39-.78-.39-.84.24-1.81,1.2-1.88.11,0,.23,0,.35,0,2.49,0,4.97,0,7.46,0Z"/>
      <path class="cls-1" d="m33.16,67.54c2.53,0,5.05,0,7.58,0,.36,0,.69.06.98.28.43.32.63.75.52,1.29-.12.55-.49.88-1.01,1.04-.16.05-.34.07-.51.07-5.07,0-10.14,0-15.21,0-.6,0-1.1-.21-1.37-.78-.39-.83.24-1.82,1.19-1.88.11,0,.23,0,.35,0,2.5,0,4.99,0,7.49,0Z"/>
    </g>
    <path class="cls-1" d="m71.18,41.04c1.86,0,3.37-1.51,3.37-3.37s-1.51-3.37-3.37-3.37-3.37,1.51-3.37,3.37c0,.59.17,1.14.44,1.63l-3.28,2.87c-.83-.67-1.87-1.08-3.01-1.08-.58,0-1.13.12-1.65.31l-2.6-4.16c.84-.71,1.38-1.76,1.38-2.94,0-2.14-1.73-3.87-3.87-3.87s-3.87,1.73-3.87,3.87,1.73,3.87,3.87,3.87c.3,0,.58-.04.86-.1l2.66,4.27c-.99.88-1.63,2.16-1.63,3.59,0,1.26.49,2.4,1.29,3.26l-2.74,3.76c-.85-.33-1.83-.31-2.69.19-1.49.86-1.99,2.76-1.14,4.24s2.76,1.99,4.24,1.14,1.99-2.76,1.14-4.24c-.04-.07-.09-.13-.14-.19l2.78-3.81c.63.31,1.34.49,2.09.49.99,0,1.9-.3,2.66-.8l2.87,2.3c-.42.89-.41,1.96.12,2.88.86,1.49,2.76,1.99,4.24,1.14,1.49-.86,1.99-2.76,1.14-4.24-.86-1.49-2.76-1.99-4.24-1.14-.01,0-.02.02-.03.02l-2.79-2.24c.54-.78.86-1.72.86-2.75,0-.86-.25-1.66-.64-2.37l3.38-2.96c.49.28,1.06.46,1.66.46Z"/>
    <path class="cls-3" d="m59.87,12.32c-5.55-3.84-13.17-2.45-17.01,3.1l-18.08,26.15c-3.84,5.55-2.45,13.17,3.1,17.02,2.79,1.92,6.07,2.53,9.16,1.97,3.08-.57,5.93-2.29,7.86-5.08l10.07-14.56-.3-.2-5.69-3.93-11.89-8.23,8.01-11.58c2.98-4.32,8.91-5.4,13.23-2.42,4.32,2.99,5.4,8.93,2.41,13.24l-1.18,1.71c.71.69,1.25,1.53,1.58,2.48l1.85-2.65c3.84-5.56,2.45-13.17-3.11-17.02Z"/>
  </g>
  <g>
    <path class="cls-4" d="m177.39,58.31c0,1.23-.24,2.29-.72,3.19-.48.9-1.17,1.59-2.06,2.08s-1.95.73-3.16.73-2.27-.24-3.18-.73-1.61-1.18-2.1-2.08c-.49-.9-.74-1.96-.74-3.19v-8.14h2.99v8.14c0,1,.28,1.79.83,2.37.55.58,1.29.87,2.19.87s1.61-.29,2.15-.87c.54-.58.8-1.37.8-2.37v-8.14h2.99v8.14Z"/>
    <path class="cls-4" d="m183.99,61.41h5.67v2.76h-8.66v-14h2.99v11.24Z"/>
    <path class="cls-4" d="m202.13,52.85h-4.04v11.32h-2.99v-11.32h-4.03v-2.68h11.06v2.68Z"/>
    <path class="cls-4" d="m207.67,64.17h-2.99v-14h2.99v14Z"/>
    <path class="cls-4" d="m225.91,64.17h-2.68v-9.44l-3.51,8.02h-1.95l-3.52-8.02v9.44h-2.7v-14h3.35l3.86,8.56,3.84-8.56h3.33v14Z"/>
    <path class="cls-4" d="m238.52,61.45h-6.1l-1.06,2.72h-3.08l5.75-14h3.08l5.65,14h-3.19l-1.04-2.72Zm-.96-2.54l-2.08-5.44-2.1,5.44h4.18Z"/>
    <path class="cls-4" d="m253.45,52.85h-4.04v11.32h-2.99v-11.32h-4.03v-2.68h11.06v2.68Z"/>
    <path class="cls-4" d="m266.08,52.79h-7.09v3.04h6.39v2.62h-6.39v3.1h7.3v2.62h-10.28v-14h10.07v2.62Z"/>
  </g>
  <path class="cls-4" d="m158.6,56.23c.78,0,1.41-.63,1.41-1.41s-.63-1.41-1.41-1.41-1.41.63-1.41,1.41c0,.25.07.48.18.68l-1.37,1.2c-.35-.28-.78-.45-1.26-.45-.24,0-.47.05-.69.13l-1.09-1.74c.35-.3.58-.73.58-1.23,0-.89-.72-1.62-1.62-1.62s-1.62.72-1.62,1.62.72,1.62,1.62,1.62c.12,0,.24-.02.36-.04l1.11,1.79c-.41.37-.68.9-.68,1.5,0,.53.21,1,.54,1.36l-1.15,1.57c-.36-.14-.77-.13-1.12.08-.62.36-.83,1.15-.48,1.77s1.15.83,1.77.48.83-1.15.48-1.77c-.02-.03-.04-.05-.06-.08l1.16-1.59c.26.13.56.21.87.21.41,0,.79-.12,1.11-.34l1.2.96c-.17.37-.17.82.05,1.2.36.62,1.15.83,1.77.48s.83-1.15.48-1.77-1.15-.83-1.77-.48c0,0,0,0-.01.01l-1.16-.94c.23-.33.36-.72.36-1.15,0-.36-.1-.7-.27-.99l1.41-1.24c.21.12.44.19.7.19Z"/>
  <path class="cls-4" d="m271.46,56.23c-.78,0-1.41-.63-1.41-1.41,0-.78.63-1.41,1.41-1.41s1.41.63,1.41,1.41c0,.25-.07.48-.18.68l1.37,1.2c.35-.28.78-.45,1.26-.45.24,0,.47.05.69.13l1.09-1.74c-.35-.3-.58-.73-.58-1.23,0-.89.72-1.62,1.62-1.62s1.62.72,1.62,1.62-.72,1.62-1.62,1.62c-.12,0-.24-.02-.36-.04l-1.11,1.79c.41.37.68.9.68,1.5,0,.53-.21,1-.54,1.36l1.15,1.57c.36-.14.77-.13,1.12.08.62.36.83,1.15.48,1.77s-1.15.83-1.77.48-.83-1.15-.48-1.77c.02-.03.04-.05.06-.08l-1.16-1.59c-.26.13-.56.21-.87.21-.41,0-.79-.12-1.11-.34l-1.2.96c.17.37.17.82-.05,1.2-.36.62-1.15.83-1.77.48s-.83-1.15-.48-1.77,1.15-.83,1.77-.48c0,0,0,0,.01.01l1.16-.94c-.23-.33-.36-.72-.36-1.15s.1-.7.27-.99l-1.41-1.24c-.21.12-.44.19-.7.19Z"/>
</svg>