<svg xmlns="http://www.w3.org/2000/svg" width="40" height="40"><path d="M15 15.833v15c0 .243-.078.443-.234.6-.157.156-.356.234-.6.234H12.5c-.243 0-.443-.078-.6-.235-.155-.156-.233-.356-.233-.6v-15c0-.242.078-.44.234-.598.157-.156.357-.234.6-.234h1.667c.243 0 .442.078.6.234.155.157.233.356.233.6zm6.667 0v15c0 .243-.078.443-.235.6-.156.156-.356.234-.6.234h-1.665c-.243 0-.443-.078-.6-.235-.156-.156-.234-.356-.234-.6v-15c0-.242.078-.44.235-.598.156-.156.356-.234.6-.234h1.665c.243 0 .443.078.6.234.156.157.234.356.234.6zm6.666 0v15c0 .243-.078.443-.234.6-.157.156-.357.234-.6.234h-1.667c-.243 0-.442-.078-.6-.235-.155-.156-.233-.356-.233-.6v-15c0-.242.078-.44.234-.598.157-.156.356-.234.6-.234H27.5c.243 0 .443.078.6.234.155.157.233.356.233.6zm3.334 18.854V10H8.333v24.688c0 .38.06.733.183 1.054.12.32.247.556.377.703.13.148.222.222.274.222h21.666c.052 0 .144-.074.274-.222.13-.147.256-.382.377-.703.122-.32.183-.673.183-1.055zm-17.5-28.02h11.666l-1.25-3.047c-.12-.156-.27-.252-.442-.287h-8.255c-.173.035-.32.13-.442.287zm24.166.833v1.667c0 .243-.078.442-.234.6-.157.155-.357.233-.6.233H35v24.688c0 1.44-.408 2.686-1.224 3.736C32.96 39.474 31.98 40 30.833 40H9.167c-1.146 0-2.127-.508-2.943-1.523C5.408 37.46 5 36.233 5 34.792V10H2.5c-.243 0-.443-.078-.6-.234-.155-.157-.233-.356-.233-.6V7.5c0-.243.078-.443.234-.6.157-.155.357-.232.6-.233h8.047l1.823-4.35c.26-.642.73-1.19 1.406-1.64C14.453.227 15.14 0 15.833 0h8.334c.694 0 1.38.226 2.057.677.677.452 1.146.998 1.406 1.64l1.823 4.35H37.5c.243 0 .443.078.6.234.155.157.233.357.233.6z"/></svg>