<svg xmlns="http://www.w3.org/2000/svg" style="-webkit-tap-highlight-color:rgba(0, 0, 0, 0)" height="41" width="40"><desc style="-webkit-tap-highlight-color:rgba(0, 0, 0, 0)">Created with Raphaël</desc><path d="M19 22l2-3" fill="none" stroke="#000" stroke-width="4" stroke-linecap="round" stroke-dashoffset="6"/><path d="M25 0h4.316v6.48h6.368V0H40v17h-4.316V9.792h-6.368V17H25V0" style="-inkscape-font-specification:Sans Bold" font-size="19.441" font-weight="bold" letter-spacing="0" word-spacing="0" font-family="Sans"/><path d="M15 39.71c-.835.426-1.705.748-2.61.965-.906.217-1.85.325-2.835.325-2.937 0-5.264-.806-6.98-2.417C.858 36.963 0 34.77 0 32.006c0-2.774.858-4.966 2.575-6.577C4.29 23.81 6.618 23 9.555 23c.984 0 1.93.108 2.835.325.905.217 1.775.54 2.61.965v3.59c-.843-.565-1.673-.98-2.492-1.243-.82-.263-1.68-.395-2.587-.395-1.62 0-2.896.51-3.826 1.534C5.164 28.8 4.7 30.21 4.7 32.006c0 1.79.465 3.195 1.394 4.218.93 1.023 2.205 1.534 3.827 1.534.907 0 1.77-.132 2.588-.395.82-.264 1.65-.678 2.492-1.244v3.59" style="-inkscape-font-specification:Sans Bold" font-size="20" font-weight="bold" letter-spacing="0" word-spacing="0" font-family="Sans"/></svg>