<svg xmlns="http://www.w3.org/2000/svg" xmlns:xlink="http://www.w3.org/1999/xlink" width="160" height="90"><defs><radialGradient r="3.5" fy="2.722" fx="7.722" cy="2.722" cx="7.722" gradientTransform="matrix(1 0 0 .714 0 1)" gradientUnits="userSpaceOnUse" xlink:href="#a"/><linearGradient id="a"><stop offset="0" stop-color="#ccc"/><stop offset="1" stop-opacity="0"/></linearGradient><radialGradient r="3.5" fy="2.722" fx="7.722" cy="2.722" cx="7.722" gradientTransform="matrix(1 0 0 .714 0 1)" gradientUnits="userSpaceOnUse" xlink:href="#b"/><linearGradient id="b"><stop offset="0" stop-color="#ccc"/><stop offset="1" stop-opacity="0"/></linearGradient><radialGradient r="3.5" fy="2.722" fx="7.722" cy="2.722" cx="7.722" gradientTransform="matrix(1 0 0 .714 0 1)" gradientUnits="userSpaceOnUse" xlink:href="#c"/><linearGradient id="c"><stop offset="0" stop-color="#ccc"/><stop offset="1" stop-opacity="0"/></linearGradient><radialGradient r="3.5" fy="2.722" fx="7.722" cy="2.722" cx="7.722" gradientTransform="matrix(1 0 0 .714 0 1)" gradientUnits="userSpaceOnUse" xlink:href="#d"/><linearGradient id="d"><stop offset="0" stop-color="#ccc"/><stop offset="1" stop-opacity="0"/></linearGradient><radialGradient r="3.5" fy="2.722" fx="7.722" cy="2.722" cx="7.722" gradientTransform="matrix(1 0 0 .714 0 1)" gradientUnits="userSpaceOnUse" xlink:href="#e"/><linearGradient id="e"><stop offset="0" stop-color="#ccc"/><stop offset="1" stop-opacity="0"/></linearGradient><radialGradient r="3.5" fy="2.722" fx="7.722" cy="2.722" cx="7.722" gradientTransform="matrix(1 0 0 .714 0 1)" gradientUnits="userSpaceOnUse" xlink:href="#f"/><linearGradient id="f"><stop offset="0" stop-color="#ccc"/><stop offset="1" stop-opacity="0"/></linearGradient></defs><g><path d="M0 45v45h160V45H0zm63.375 7.875c2.995 0 5.35.695 7.094 2.063 1.744 1.354 2.624 3.182 2.624 5.5 0 1.614-.482 2.973-1.406 4.093-.925 1.108-2.232 1.884-3.938 2.314 1.888.403 3.352 1.224 4.406 2.5 1.068 1.276 1.625 2.875 1.625 4.75 0 2.877-.988 5.08-2.968 6.656-1.98 1.576-4.79 2.375-8.437 2.375-1.224 0-2.51-.128-3.813-.375-1.29-.234-2.62-.58-4-1.063v-3.812c1.094.638 2.292 1.112 3.594 1.438 1.302.325 2.675.5 4.094.5 2.474 0 4.336-.493 5.625-1.47 1.302-.976 1.97-2.387 1.97-4.25 0-1.718-.603-3.067-1.814-4.03-1.197-.977-2.882-1.47-5.03-1.47h-3.375v-3.25h3.53c1.94 0 3.44-.387 4.47-1.156 1.03-.78 1.53-1.885 1.53-3.343 0-1.498-.525-2.643-1.593-3.438-1.054-.807-2.583-1.218-4.562-1.218-1.08 0-2.232.11-3.47.343-1.236.236-2.608.6-4.093 1.095v-3.5c1.498-.417 2.917-.73 4.22-.938 1.314-.208 2.56-.312 3.718-.312zm17.53.53h8.126c5.652 0 9.795 1.176 12.44 3.532 2.642 2.344 3.967 6 3.968 11 0 5.027-1.344 8.737-4 11.094-2.657 2.358-6.782 3.532-12.407 3.532h-8.124V53.407zm3.97 3.25v22.657h4.75c4.023 0 6.982-.895 8.844-2.718 1.874-1.823 2.81-4.724 2.81-8.656 0-3.907-.936-6.753-2.81-8.563-1.863-1.823-4.822-2.72-8.845-2.72h-4.75z" color="#000" fill-rule="evenodd" stroke-width="3" overflow="visible" enable-background="accumulate"/><g style="line-height:125%" font-size="40" letter-spacing="0" word-spacing="0" font-family="Sans"><path d="M59.258 34.523h13.77v3.32H54.51v-3.32c1.497-1.55 3.535-3.626 6.113-6.23 2.59-2.617 4.22-4.303 4.883-5.06 1.263-1.418 2.142-2.616 2.637-3.592.507-.99.76-1.96.76-2.91 0-1.55-.546-2.812-1.64-3.79-1.08-.975-2.493-1.463-4.238-1.463-1.237 0-2.545.214-3.925.644-1.368.43-2.832 1.082-4.395 1.954V10.09c1.59-.638 3.073-1.12 4.453-1.446 1.38-.325 2.643-.488 3.79-.488 3.02 0 5.43.755 7.226 2.266 1.797 1.51 2.695 3.528 2.695 6.055 0 1.197-.227 2.337-.683 3.417-.442 1.068-1.256 2.33-2.44 3.79-.326.377-1.362 1.47-3.106 3.28-1.744 1.798-4.205 4.317-7.382 7.56"/><path d="M84.922 11.926v22.676h4.766c4.023 0 6.966-.912 8.828-2.735 1.875-1.823 2.812-4.7 2.812-8.633 0-3.906-.937-6.764-2.812-8.574-1.862-1.823-4.805-2.734-8.83-2.734h-4.764m-3.945-3.242h8.105c5.65 0 9.798 1.178 12.44 3.535 2.645 2.342 3.966 6.014 3.966 11.014 0 5.026-1.328 8.718-3.984 11.075-2.656 2.355-6.797 3.534-12.422 3.534h-8.105V8.684"/></g></g></svg>