<svg xmlns="http://www.w3.org/2000/svg" xmlns:xlink="http://www.w3.org/1999/xlink" width="160" height="90"><defs><radialGradient r="3.5" fy="2.722" fx="7.722" cy="2.722" cx="7.722" gradientTransform="matrix(1 0 0 .714 0 1)" gradientUnits="userSpaceOnUse" xlink:href="#a"/><linearGradient id="a"><stop offset="0" stop-color="#ccc"/><stop offset="1" stop-opacity="0"/></linearGradient><radialGradient r="3.5" fy="2.722" fx="7.722" cy="2.722" cx="7.722" gradientTransform="matrix(1 0 0 .714 0 1)" gradientUnits="userSpaceOnUse" xlink:href="#b"/><linearGradient id="b"><stop offset="0" stop-color="#ccc"/><stop offset="1" stop-opacity="0"/></linearGradient><radialGradient r="3.5" fy="2.722" fx="7.722" cy="2.722" cx="7.722" gradientTransform="matrix(1 0 0 .714 0 1)" gradientUnits="userSpaceOnUse" xlink:href="#c"/><linearGradient id="c"><stop offset="0" stop-color="#ccc"/><stop offset="1" stop-opacity="0"/></linearGradient><linearGradient><stop offset="0" stop-color="#ccc"/><stop offset="1" stop-opacity="0"/></linearGradient><linearGradient><stop offset="0" stop-color="#ccc"/><stop offset="1" stop-opacity="0"/></linearGradient><linearGradient><stop offset="0" stop-color="#ccc"/><stop offset="1" stop-opacity="0"/></linearGradient></defs><g style="line-height:125%" font-size="40" letter-spacing="0" word-spacing="0" font-family="Sans"><path d="M59.258 56.523h13.77v3.32H54.51v-3.32c1.497-1.55 3.535-3.626 6.113-6.23 2.59-2.617 4.22-4.303 4.883-5.06 1.263-1.418 2.142-2.616 2.637-3.592.507-.99.76-1.96.76-2.91 0-1.55-.546-2.812-1.64-3.79-1.08-.975-2.493-1.463-4.238-1.464-1.237 0-2.545.215-3.925.645-1.368.43-2.832 1.082-4.395 1.954V32.09c1.59-.638 3.073-1.12 4.453-1.446 1.38-.325 2.643-.488 3.79-.488 3.02 0 5.43.755 7.226 2.266 1.797 1.51 2.695 3.528 2.695 6.055 0 1.197-.227 2.337-.683 3.418-.442 1.067-1.256 2.33-2.44 3.79-.326.376-1.362 1.47-3.106 3.28-1.744 1.797-4.205 4.316-7.382 7.558"/><path d="M84.922 33.926v22.676h4.766c4.023 0 6.966-.912 8.828-2.735 1.875-1.823 2.812-4.7 2.812-8.633 0-3.906-.937-6.764-2.812-8.574-1.862-1.823-4.805-2.734-8.83-2.734h-4.764m-3.945-3.242h8.105c5.65 0 9.798 1.178 12.44 3.535 2.645 2.342 3.966 6.014 3.966 11.014 0 5.026-1.328 8.718-3.984 11.075-2.656 2.355-6.797 3.534-12.422 3.534h-8.105v-29.16"/></g></svg>