<svg xmlns="http://www.w3.org/2000/svg" width="82" height="20" viewBox="0 0 82 20"><g stroke-linecap="round" transform="matrix(1.155 0 0 1.155 -23.143 -1196.756)" stroke="#424242"><circle r="5" cy="10" cx="43" transform="matrix(.8 0 0 .8 8.101 1036.862)" fill="none" stroke-width="1.25"/><path d="M52.5 1048.862c-2.21 0-4-1.79-4-4v-4" fill="none"/><path d="M65.5 1042.862v5.9" fill="none"/><path d="M62.5 1038.862v7.5c0 6-8 6-8 0v-7.5" fill="none"/><g fill="none"><path d="M74.828 1047.69c-.724.724-1.724 1.172-2.828 1.172-2.21 0-4-1.79-4-4s1.79-4 4-4c1.104 0 2.104.448 2.828 1.172.724.724 1.172 1.724 1.172 2.828"/><path d="M71.5 1044.862H76"/></g><g fill="none"><path d="M84.5 1040.862v5c0 4-6 4-6 0v-5"/><path d="M90.5 1040.862v5c0 4-6 4-6 0v-5"/></g><g fill="none"><path d="M28.5 1050.862v-7.5c0-6 8-6 8 0v7.5"/><path d="M20.5 1050.862v-7.5c0-6 8-6 8 0v7.5"/></g><circle r=".5" cy="3.5" cx="65.5" transform="translate(0 1036.862)" fill="#212121" stroke-linejoin="round"/></g></svg>