<svg id="Group_53" data-name="Group 53" xmlns="http://www.w3.org/2000/svg" xmlns:xlink="http://www.w3.org/1999/xlink" width="187.95" height="165.941" viewBox="0 0 187.95 165.941">
  <defs>
    <clipPath id="clip-path">
      <rect id="Rectangle_139" data-name="Rectangle 139" width="187.95" height="165.941" fill="#366ee7"/>
    </clipPath>
  </defs>
  <g id="Group_52" data-name="Group 52" clip-path="url(#clip-path)">
    <path id="Path_78" data-name="Path 78" d="M0,56.021c.076.082.179.127.249.028A4.043,4.043,0,0,1,1.6,54.941c-.13-.3-.419-.364-.607-.546a1.039,1.039,0,0,1,.13-1.809,5.693,5.693,0,0,1,1.592-.734,27.789,27.789,0,0,1,3.722-.893c.987-.182.985-.2.986-1.25,0-.968.042-1.938-.015-2.9a1.22,1.22,0,0,1,.754-1.284q10.162-5.706,20.3-11.456L75.635,7.416c.21-.119.43-.225.628-.361.347-.237.584-.256.817.182.35.659.387.651-.351,1.068q-6.04,3.419-12.083,6.831Q37.185,30.654,9.711,46.152A1.587,1.587,0,0,0,8.7,47.916a17.927,17.927,0,0,1,.017,1.968c.008.759.013.758.814.752q1.244-.009,2.488-.014a11.98,11.98,0,0,1,4.38.7c0-1.252.042-2.383-.016-3.509a1.282,1.282,0,0,1,.786-1.378c2.368-1.281,4.7-2.638,7.046-3.951a2.5,2.5,0,0,0,1.158-1.233,11.179,11.179,0,0,1,11.485-6.629,3.277,3.277,0,0,0,2.055-.438q22.8-12.913,45.619-25.795a3.192,3.192,0,0,1,1.107-.506c-.141.52-.545.588-.831.751q-6.845,3.885-13.7,7.752Q55.326,25.308,39.547,34.226a3.081,3.081,0,0,0-.838.545c.121.252.343.258.535.323a6.43,6.43,0,0,1,1.976.889A1.9,1.9,0,0,0,43.684,36Q68.045,22.165,92.455,8.414a2.426,2.426,0,0,1,1.116-.484c-.115.48-.522.547-.8.707q-6.351,3.6-12.713,7.186Q61.883,26.091,43.716,36.363a2.306,2.306,0,0,0-.906.65,12.516,12.516,0,0,1,2.106,2.231.345.345,0,0,0,.534.075c.175-.11.359-.207.539-.309l50.506-28.54a4.022,4.022,0,0,1,.452-.253c.462-.186.566-.46.439-.968a7.314,7.314,0,0,1,.1-3.89,7.54,7.54,0,0,1,14.648,3.468c-.221,1.167-.369.968.7,1.59q21.948,12.749,43.9,25.492c3.942,2.289,7.89,4.568,11.821,6.876.508.3.89.391,1.356-.053a14.161,14.161,0,0,1,1.316-.991L183.076,59.11c-.025.3-.239.375-.4.493q-6.273,4.68-12.55,9.354c-.667.5-.677.5-1.17-.182q-5.425-7.461-10.839-14.931a5.036,5.036,0,0,0-1.582-1.446q-25.49-14.9-50.965-29.829c-.326-.191-.644-.394-1.053-.645l1.281-2.2c.358.194.684.359,1,.544q25.481,14.916,50.948,29.858a1.776,1.776,0,0,0,2.411-.1c1.9-1.545,3.915-2.956,5.881-4.423.275-.2.541-.422.807-.631-.155-.349-.473-.434-.73-.584Q138.8,28.514,111.468,12.651c-.769-.446-.77-.443-1.422.2a7.532,7.532,0,0,1-10.711-.039c-.6-.6-.6-.6-1.346-.182L47.208,41.316a4.726,4.726,0,0,1-.452.252c-.37.158-.4.419-.281.761a10.676,10.676,0,0,1,.458,2.015,11.309,11.309,0,0,1-9.5,12.726c-.857.127-.862.127-.866,1.028-.012,3.076-.027,6.152-.029,9.229q-.013,17.058-.018,34.116,0,6.688-.016,13.377c0,.972,0,.972.9,1.221a6.973,6.973,0,0,1,4.755,9.152c-.368,1.014-.368,1.014.541,1.552L95.137,157.76c2.556,1.512,5.126,3,7.661,4.548a1.585,1.585,0,0,0,1.854.064q29.11-16.177,58.249-32.3c1.6-.886,3.186-1.8,4.779-2.695a2.552,2.552,0,0,0,.716,1.742,34.572,34.572,0,0,0-3.469,1.846q-30.174,16.7-60.329,33.441a1.524,1.524,0,0,1-1.767-.035Q72.356,146.3,41.857,128.279c-.268-.158-.541-.308-.8-.476a.451.451,0,0,0-.636.045,7,7,0,0,1-6.21,1.784c.162.471.55.556.838.726q11.538,6.837,23.085,13.659,17.782,10.521,35.558,21.051c.358.212.875.294.882.873h-.415c-.069-.465-.521-.487-.814-.66Q72.453,152.9,51.548,140.54q-12.924-7.645-25.85-15.287a2.315,2.315,0,0,0-.912-.447c-.412-.044-.776-.439-.611-.763a2.853,2.853,0,0,0,.14-1.416q.014-37.219.011-74.438c0-.446.03-.894.049-1.339a15.834,15.834,0,0,1,.426-4.1,1.841,1.841,0,0,0-1.059.413c-2.018,1.13-4.011,2.306-6.054,3.387a1.543,1.543,0,0,0-.939,1.6q.036,37.529,0,75.059a1.613,1.613,0,0,0,.939,1.611Q42.126,139.239,66.54,153.7q9.626,5.694,19.253,11.388c.368.218.759.4.9.853h-.415c-.095-.348-.436-.406-.684-.553q-34-20.123-68-40.225c-.266-.157-.5-.487-.921-.263-.2.106-.2-.191-.3-.3-.388-.438.062-.823.047-1.239a33.637,33.637,0,0,1,.008-3.833,1.587,1.587,0,0,0-1.013-1.7,5.315,5.315,0,0,0-1.158-.438,14.855,14.855,0,0,0-4.838-.3c-.685.057-.693.084-.7.839-.007,1.451.059,2.906-.026,4.352a1.538,1.538,0,0,0,.949,1.6q33.888,20.013,67.753,40.066a2.864,2.864,0,0,1,.958.673c-.068.139-.13.294-.216.436-.375.619-.378.618-1.023.253-.09-.051-.176-.109-.265-.162Q47.518,147.8,18.185,130.458c-3.505-2.07-6.942-4.258-10.555-6.142-.137-.071-.269-.179-.241-.3.159-.668-.386-.615-.738-.723-.725-.222-1.468-.388-2.191-.617A8.95,8.95,0,0,1,.1,120.29c-.01-.012-.064.015-.1.024v-.829c.645-.219.952-.916,1.616-1.093-.119-.277-.367-.356-.543-.513-.77-.688-.725-1.343.144-1.928a6,6,0,0,1,1.407-.642,30.548,30.548,0,0,1,4.016-.975c.771-.156.781-.151.786-.878.008-1.14-.027-2.28.014-3.418.021-.581-.13-.843-.744-.979a21.188,21.188,0,0,1-4.315-1.419,5.144,5.144,0,0,1-1.565-.993,1.176,1.176,0,0,1,.053-1.886c.265-.252.692-.313.851-.7-.209-.167-.411-.3-.583-.47-.647-.629-.625-1.18.082-1.729a4.883,4.883,0,0,1,1.383-.689,21.335,21.335,0,0,1,4.115-.993c.563-.082.729-.321.722-.875-.027-2.313-.008-4.626-.013-6.94,0-.778-.008-.789-.821-1a25.407,25.407,0,0,1-4.118-1.36,5.923,5.923,0,0,1-1.509-.894,1.23,1.23,0,0,1,.047-2.155c.231-.185.572-.24.7-.577-.192-.151-.394-.286-.567-.452-.683-.654-.645-1.229.127-1.794A5.484,5.484,0,0,1,2.871,83.4a25.512,25.512,0,0,1,3.617-.866c.936-.157.938-.168.94-1.085q0-2.537,0-5.075c0-.906-.008-.891-.894-1.14C4.193,74.574,1.779,74.067,0,72.2v-.622A10.546,10.546,0,0,1,1.643,70.29c-.167-.134-.267-.213-.365-.294-1.077-.89-1-1.6.253-2.269a7.976,7.976,0,0,1,1.937-.717q1.712-.4,3.436-.753c.358-.072.536-.195.532-.6q-.026-2.539,0-5.079c.005-.447-.194-.576-.592-.663-.74-.161-1.473-.369-2.2-.6a17.511,17.511,0,0,1-3.34-1.382C.791,57.647.563,57.055,0,56.851Zm24.869-6.706-.185.019v73.66a3.978,3.978,0,0,1,0,.518.969.969,0,0,0,.579,1.077c1.266.706,2.5,1.466,3.755,2.193.22.127.461.443.718.209.276-.251-.051-.495-.171-.715a6.816,6.816,0,0,1-.555-5.7A6.744,6.744,0,0,1,34.064,116c.553-.134.784-.331.713-.879a2.42,2.42,0,0,1,0-.311q.015-9.845.029-19.69.02-18.447.034-36.9c0-1.013-.009-.981-1.032-1.179A11.209,11.209,0,0,1,25.3,50.352c-.156-.341-.289-.691-.432-1.037M35.684,55.45a9.587,9.587,0,1,0-9.569-9.632,9.551,9.551,0,0,0,9.569,9.632M16.4,100.438V99.389c0-3.935-.036-7.87.025-11.8A1.643,1.643,0,0,0,15.237,85.8a8.042,8.042,0,0,0-.981-.319,17.636,17.636,0,0,0-5.046-.234c-.526.029-.5.348-.5.7q0,6.627,0,13.255c0,.7.021.71.672.674a20.953,20.953,0,0,1,7.007.562M104.666,13.31a5.825,5.825,0,0,0,5.847-5.763,5.793,5.793,0,0,0-11.585-.09,5.783,5.783,0,0,0,5.738,5.852M16.4,82.8V71.71c0-1.3-.229-1.65-1.442-2.134a6.668,6.668,0,0,0-.991-.291,15.424,15.424,0,0,0-4.227-.238c-1.149.059-1.021,0-1.022,1.024q0,5.6,0,11.2c0,.173.007.346,0,.518-.012.315.142.432.444.409.241-.018.483-.024.725-.027A19.1,19.1,0,0,1,16.4,82.8m0-16.119V65.556c0-3.106-.069-6.214.036-9.316a1.9,1.9,0,0,0-1.358-2,5.252,5.252,0,0,0-.984-.307,15.553,15.553,0,0,0-4.835-.249c-.467.039-.548.258-.547.662q.014,5.539,0,11.077c0,.417.076.629.566.612a19.416,19.416,0,0,1,7.123.644M16.306,114.7a2.626,2.626,0,0,0,.088-1.073q.009-4.14,0-8.281c0-1.258-.172-1.515-1.363-1.962a7.544,7.544,0,0,0-.993-.28,19.932,19.932,0,0,0-4.639-.209c-.541.005-.7.205-.7.734.02,3.244.006,6.487.012,9.731,0,.716.017.718.749.715,2.3-.007,4.618-.191,6.84.626M35.64,128.013a5.223,5.223,0,1,0-5.288-5.226,5.2,5.2,0,0,0,5.288,5.226M7.428,123.007c0-.821-.039-1.545.013-2.263.039-.538-.193-.727-.67-.82a21.33,21.33,0,0,1-3.962-1.142,1.254,1.254,0,0,0-1.167.114c-1.273.674-1.319,1.305-.087,2.05a20.111,20.111,0,0,0,5.874,2.061m0-63.429c0-.821-.037-1.51.012-2.193a.734.734,0,0,0-.705-.9,23.567,23.567,0,0,1-4.058-1.172.75.75,0,0,0-.686-.01c-.537.291-1.262.482-1.3,1.185-.034.606.6.86,1.059,1.16a1.959,1.959,0,0,0,.182.1,23.143,23.143,0,0,0,5.5,1.828m0,15.223c0-.647-.032-1.334.01-2.018.033-.537-.13-.791-.688-.9a24.4,24.4,0,0,1-4.058-1.167.68.68,0,0,0-.588-.067c-.557.266-1.268.455-1.4,1.108-.139.684.54.965,1.029,1.26a10.155,10.155,0,0,0,1.3.63,28.844,28.844,0,0,0,3.832,1.2.7.7,0,0,0,.566-.051m0,16.292c0-.834-.036-1.583.012-2.325.033-.506-.216-.661-.631-.744a23.941,23.941,0,0,1-3.953-1.151.844.844,0,0,0-.779.02C1.57,87.17.9,87.355.857,88.02c-.038.622.565.9,1.038,1.166a21.224,21.224,0,0,0,5.534,1.907m8.97,12.461c0-.714-.043-1.269.011-1.815a.847.847,0,0,0-.766-1.015c-.2-.048-.4-.1-.6-.142a21.074,21.074,0,0,0-5.563-.234c-.751.057-.766.057-.759.843.013,1.56-.192,1.274,1.324,1.242,2.139-.044,4.28-.118,6.356,1.122m-8.97,5.215c0-.847-.04-1.536.012-2.217.044-.575-.219-.764-.725-.871a21.112,21.112,0,0,1-3.748-1.1,1.245,1.245,0,0,0-1.16.115c-1.264.681-1.321,1.316-.1,2.053a19.63,19.63,0,0,0,5.722,2.02M16.4,69.8c0-.745-.042-1.331.012-1.907a.784.784,0,0,0-.631-.9,7.187,7.187,0,0,0-1.6-.381,26.111,26.111,0,0,0-3.914-.175c-1.665.045-1.722.122-1.557,1.767.037.37.191.473.522.432.2-.025.411-.041.617-.049A11.162,11.162,0,0,1,16.4,69.8m0-15.395c0-.751-.029-1.371.01-1.987a.714.714,0,0,0-.537-.766,6.122,6.122,0,0,0-1.493-.4,22.554,22.554,0,0,0-3.919-.19c-1.9.046-1.9.04-1.72,1.966a.713.713,0,0,0,.1.2c2.537-.132,5.086-.266,7.561,1.173m0,63.481v-1.373c0-1.272-.114-1.417-1.367-1.717-.167-.04-.339-.055-.508-.087a21.834,21.834,0,0,0-4.327-.2c-1.614.016-1.652.072-1.48,1.692a.951.951,0,0,1,0,.1c0,.266.155.352.4.343.55-.022,1.1-.06,1.652-.058a9.609,9.609,0,0,1,5.631,1.3m0-32.1c0-.54,0-1.045,0-1.55-.006-.951-.036-1.02-.993-1.247a21.478,21.478,0,0,0-6.185-.327c-.31.017-.533.114-.505.49a6.946,6.946,0,0,0,.089,1.63c5.246.031,5.246.031,7.6,1m-9-34.53a22.586,22.586,0,0,0-5.459,1.409c-.4.18-.93.34-.908.866.025.595.614.771,1.058,1.011.261.141.531.015.8-.058.926-.254,1.864-.469,2.784-.743.574-.171,1.4.045,1.676-.524a5.246,5.246,0,0,0,.05-1.961m.032,63.429a21.842,21.842,0,0,0-5.566,1.439,3.332,3.332,0,0,0-.679.455.464.464,0,0,0-.14.557,1.7,1.7,0,0,0,1.617.841,28.208,28.208,0,0,1,4.2-1.019c.394-.065.61-.227.579-.674-.034-.475-.008-.956-.008-1.6M7.405,66.652c-.431.068-.736.1-1.037.165a19.018,19.018,0,0,0-4.458,1.24c-.394.185-.863.348-.9.891-.02.315.739.924,1.2,1.027a1.437,1.437,0,0,0,.7-.117c.931-.241,1.863-.481,2.788-.744.571-.162,1.393.058,1.656-.541a5.356,5.356,0,0,0,.047-1.922m-.1,16.2a21.416,21.416,0,0,0-5.2,1.354c-.4.179-.935.353-.914.865.023.582.6.774,1.053,1.013a1.031,1.031,0,0,0,.8-.049c.893-.244,1.785-.492,2.682-.72.554-.141,1.319-.02,1.607-.476.305-.481.109-1.2.065-1.812,0-.031-.03-.061-.09-.174m.028,17.684a18.723,18.723,0,0,0-5.539,1.5,1.259,1.259,0,0,0-.549.459.444.444,0,0,0-.021.482,1.72,1.72,0,0,0,1.751.744c.932-.25,1.86-.515,2.8-.735,1.818-.426,1.82-.415,1.558-2.454m.052-46.624A24.206,24.206,0,0,0,3,54.935a23.317,23.317,0,0,0,4.384,1.218ZM7.377,69.3a16.7,16.7,0,0,0-4.091,1.04,18.158,18.158,0,0,0,4.071,1.2,8.93,8.93,0,0,0,.02-2.24m.02,48.027a24.738,24.738,0,0,0-4.381,1.04A20.549,20.549,0,0,0,7.4,119.553ZM3.422,86.479a16.333,16.333,0,0,0,3.947,1.2,6.5,6.5,0,0,0-.045-2.2,20.639,20.639,0,0,0-3.9,1M3.2,104.19a23.285,23.285,0,0,0,4.188,1.145,7.973,7.973,0,0,0-.046-2.2A25.318,25.318,0,0,0,3.2,104.19M29.869,127.3c.079-.036.171-.052.181-.088.025-.095,0-.206-.112-.231-.051-.011-.114.039-.173.061l.1.259" transform="translate(0 0)" fill="#366ee7"/>
    <path id="Path_79" data-name="Path 79" d="M269.33,120.042c.8,0,1.621.007,2.445,0,.773-.009.785-.016.786-.811q.008-5.08,0-10.16V107.9a9.917,9.917,0,0,1,1.933,1.825c.218.241.094.6.095.905.007,2.834,0,5.668.005,8.5,0,.9.009.9.888.909.622,0,1.245.02,1.866,0,.449-.019.6.151.6.6-.02,1.52-.008,3.041-.007,4.561,0,1.279.016,2.558-.008,3.836-.008.449.134.6.589.593,1.278-.025,2.558.017,3.835-.02.55-.016.76.172.7.7a4.868,4.868,0,0,0,0,.518q0,19.7,0,39.395c0,1.442.1,1.208-1.2,1.22s-2.627.025-3.939-.008c-.537-.013-.723.153-.713.7.029,1.52,0,3.041.015,4.561.007.707.027.724.789.729,1.59.012,3.179,0,4.769.007.169,0,.338.03.595.055,0,1.12,0,2.217,0,3.314,0,.306-.138.436-.436.427-.207-.006-.415,0-.622,0H264.79c-.207,0-.415,0-.622,0a.335.335,0,0,1-.376-.379c0-1,0-2-.007-3.006,0-.319.164-.42.451-.411.207.007.415,0,.622,0,1.417,0,2.834.006,4.25,0,.776,0,.786-.017.79-.806q.012-2.177,0-4.354c0-.809-.012-.815-.875-.818-1.383-.005-2.765,0-4.147,0-.768,0-.768-.015-.783-.811,0-.173,0-.346,0-.518V130.927c0-.173,0-.346,0-.518.016-.776.017-.785.807-.789,1.209-.008,2.42-.028,3.628.009.557.018.7-.187.7-.712-.021-2.557-.012-5.114-.006-7.672a2.853,2.853,0,0,1,.11-1.2m-3.573,36.91v11.508c0,.242.012.485,0,.726-.02.359.154.5.494.485.207-.007.415,0,.622,0h13.582c.207,0,.416-.015.622,0,.363.027.48-.14.478-.488q-.016-2.488,0-4.977c0-.354-.129-.493-.485-.483-.622.017-1.244,0-1.866,0-1.624,0-3.249,0-4.873,0-.224,0-.539.1-.627-.2a1.586,1.586,0,0,1,.021-1.115c.136-.28.5-.135.76-.157.172-.015.346,0,.518,0,1.97,0,3.94-.015,5.91.009.5.006.671-.153.647-.652-.035-.724,0-1.451-.011-2.177-.009-.789-.015-.8-.787-.8q-3.992-.008-7.983,0c-.242,0-.484,0-.726,0s-.347-.13-.388-.374c-.178-1.07-.013-1.283,1.038-1.286h.415c2.592,0,5.184-.01,7.776.009.477,0,.694-.11.666-.63-.037-.689-.009-1.382-.009-2.073,0-1.432,0-1.432-1.408-1.432q-2.9,0-5.806,0c-.231,0-.579.092-.641-.181a2.184,2.184,0,0,1,.021-1.122c.1-.289.49-.162.754-.162,2.108-.008,4.216,0,6.325-.007.734,0,.749-.015.752-.727q.013-2.8,0-5.6c0-.784-.012-.8-.784-.8q-7.05-.006-14.1,0c-.9,0-.9.01-.906.9q0,5.91,0,11.819" transform="translate(-153.961 -62.977)" fill="#366ee7"/>
    <path id="Path_80" data-name="Path 80" d="M212.266,147.676c-2.485,0-4.971.013-7.456,0a6.663,6.663,0,0,1-6.686-6.1,6.31,6.31,0,0,1,3.5-6.407,7.83,7.83,0,0,1,3.489-.838c4.764,0,9.528-.019,14.291,0a6.673,6.673,0,1,1,.317,13.34c-2.485.011-4.971,0-7.456,0m.186-10.7a15.941,15.941,0,0,0-.951,4.782,8.926,8.926,0,0,0,.7,4.043.917.917,0,0,0,.933.648c2.211-.02,4.429.1,6.632-.035a5.214,5.214,0,0,0,5.215-5.244,5.143,5.143,0,0,0-5.222-5.4c-5.177-.17-10.358-.243-15.537-.358a3.4,3.4,0,0,0-1.7.376,1.47,1.47,0,0,0-.953,1.164,19.242,19.242,0,0,1,2.384-.367c2.791.136,5.583.259,8.494.393" transform="translate(-115.623 -78.397)" fill="#366ee7"/>
    <path id="Path_81" data-name="Path 81" d="M222.744,210.247a21.273,21.273,0,0,1-5.805,2.519c-4.449,1.153-8.964,1.532-13.39.11-7.527-2.418-12.708-7.379-14.678-15.114-1.734-6.81.094-12.936,4.826-18.1a21.511,21.511,0,0,1,12.8-6.874,24.669,24.669,0,0,1,10.857.766c.987.285.983.3.945,1.361-.005.129.019.271-.118.381a21.666,21.666,0,0,0-22.605,4.307,18.288,18.288,0,0,0-.629,26.5,19.1,19.1,0,0,0,11.392,6.072,23.085,23.085,0,0,0,13.435-1.884,1.15,1.15,0,0,1,.473-.177,15.652,15.652,0,0,1,2.5.137" transform="translate(-109.861 -100.677)" fill="#366ee7"/>
    <path id="Path_82" data-name="Path 82" d="M303.268,275.251c.051.031.09.042.107.068.648.954.648.955-.322,1.5l-54.275,30.267c-.211.118-.427.227-.633.354-.269.165-.421.07-.588-.174-.488-.712-.495-.731.358-1.206q8.864-4.947,17.729-9.889,18.272-10.189,36.547-20.376a4.255,4.255,0,0,1,1.077-.539" transform="translate(-144.296 -160.653)" fill="#366ee7"/>
    <path id="Path_83" data-name="Path 83" d="M120.779,170.775V141.433c0-.208,0-.415,0-.622.014-.824.192-.97.964-.843a.362.362,0,0,1,.358.4c0,.242,0,.484,0,.726v59.409c0,.1,0,.207,0,.311-.012.745-.261.931-1.01.772-.194-.041-.309-.126-.31-.334,0-.276,0-.553,0-.829V170.775" transform="translate(-70.493 -81.67)" fill="#366ee7"/>
    <path id="Path_84" data-name="Path 84" d="M219.286,224.55c-.975-1.18-1.856-2.414-2.864-3.547a8.224,8.224,0,0,0-.652-.662.328.328,0,0,0-.274,0,.174.174,0,0,0-.056.263c.145.233.311.454.474.676a19.736,19.736,0,0,1,2.995,5.831,2.075,2.075,0,0,1-.926-.194,15.7,15.7,0,0,1-4.692-2.581c-2.5-2.018-3.329-4.737-3.27-7.811.015-.753.227-1.5.306-2.255.047-.445.275-.5.632-.415a15.2,15.2,0,0,1,5.247,2.112,6.6,6.6,0,0,1,2.685,4.044,13.53,13.53,0,0,1,.395,4.54m-5.249-5.566a.2.2,0,0,0,.209.206c.016.184.149.262.3.329a.836.836,0,0,0,.454.485c.1.095.216.166.307.01.1-.171-.067-.2-.171-.261a.511.511,0,0,0-.449-.379c-.1-.192-.188-.4-.448-.177.128-.286-.071-.21-.215-.195q.047-.127-.069-.133c0,.02-.009.049,0,.06a.409.409,0,0,0,.085.055" transform="translate(-122.579 -124.799)" fill="#366ee7"/>
    <path id="Path_85" data-name="Path 85" d="M237.9,219.437a14.062,14.062,0,0,0-2.687,2.851c-.6.747-1.164,1.529-1.846,2.432a10.71,10.71,0,0,1,.072-2.662,11.525,11.525,0,0,1,.671-3.024,6.181,6.181,0,0,1,2.373-3.061,15.035,15.035,0,0,1,5.249-2.115c.361-.083.54-.01.631.418a11.4,11.4,0,0,1-.229,6.131,8.14,8.14,0,0,1-2.2,3.455,14.551,14.551,0,0,1-6.043,3.275c-.129-.292.055-.527.143-.776a20.2,20.2,0,0,1,3.379-5.9,2.639,2.639,0,0,0,.611-.82.192.192,0,0,0,.191-.224c.139-.007.21-.075.2-.219.1-.008.167-.047.151-.158,0-.017-.06-.042-.084-.035-.11.032-.128.1-.064.194-.147-.152-.228-.022-.316.074a.22.22,0,0,0-.2.171" transform="translate(-136.172 -124.802)" fill="#366ee7"/>
    <path id="Path_86" data-name="Path 86" d="M182.821,178.037a3.79,3.79,0,0,0-.465-2.446,2.128,2.128,0,0,1,.2-2.347,4.629,4.629,0,0,1,1.5-1.4,2.443,2.443,0,0,1,2.472-.1,4.982,4.982,0,0,0,3,.508,6.183,6.183,0,0,1,1.241.017,2.363,2.363,0,0,1,2.19,1.628,2.178,2.178,0,0,1-.816,2.4,4.347,4.347,0,0,1-1.4.867,5.39,5.39,0,0,0-2.685,2.475,4.648,4.648,0,0,1-1.375,1.656,2.42,2.42,0,0,1-3.857-1.768,13.985,13.985,0,0,1-.008-1.486" transform="translate(-106.278 -100.072)" fill="#366ee7"/>
    <path id="Path_87" data-name="Path 87" d="M212.96,214.844c-8.236-.344-14.34-4.168-17.642-11.717-2.983-6.819-1.51-13.211,3.361-18.738a18.892,18.892,0,0,1,11.207-6.191,21.417,21.417,0,0,1,10.13.676c.241.074.585.039.62.412.032.348-.3.581-.7.461a21.173,21.173,0,0,0-2.712-.655c-7.683-1.252-14.031,1.114-18.981,7.1a15.492,15.492,0,0,0-3.211,7.428c-1.094,6.492,1.257,11.735,6.1,15.939a17.626,17.626,0,0,0,13.933,4.275,22.166,22.166,0,0,0,6.318-1.494c.184-.077.4-.31.629.008.254.353.219.567-.239.769a18.784,18.784,0,0,1-4.052,1.227,26.821,26.821,0,0,1-4.76.5" transform="translate(-113.1 -103.82)" fill="#366ee7"/>
    <path id="Path_88" data-name="Path 88" d="M422.631,147.174,429.37,165l-.156.117-15.582-10.959,9-6.982m3.715,14.322.036-.03-.054.022c.224-.359-.017-.66-.132-.969-.6-1.613-1.222-3.222-1.831-4.834-.779-2.062-1.554-4.125-2.362-6.271l-6.029,4.677c.388.282.663.485.942.682q4.275,3.01,8.55,6.022a2.939,2.939,0,0,1,.881.7" transform="translate(-241.42 -85.899)" fill="#366ee7"/>
    <path id="Path_89" data-name="Path 89" d="M175.059,150.525c.139,0,.277.008.415,0,.363-.022.62.061.553.506-.052.346.1.779-.523.8a18.761,18.761,0,0,0-4.481.712,10.828,10.828,0,0,0-7.328,9.72,9.626,9.626,0,0,0,2.377,6.773,11.255,11.255,0,0,0,6.647,3.889c.135.025.267.075.4.09.51.059.477.382.383.749-.086.334-.1.651-.637.56a12.3,12.3,0,0,1-10.458-10.878,12.147,12.147,0,0,1,9.47-12.5,24.17,24.17,0,0,1,3.178-.419" transform="translate(-94.769 -87.853)" fill="#366ee7"/>
    <path id="Path_90" data-name="Path 90" d="M227.244,207.142c-1.466,0-1.466,0-1.5-1.428-.021-.8-.021-.788-.8-.822-.51-.023-1.157.224-1.5-.114-.38-.379-.075-1.052-.144-1.591-.072-.573.215-.717.725-.68.412.03.828,0,1.241.005.359.008.5-.167.472-.508a1.808,1.808,0,0,1,0-.207c.045-1.358.045-1.369,1.372-1.352.51.006,1.121-.21,1.5.114.362.306.134.909.134,1.378s.193.6.619.581c.482-.021.966.009,1.448-.007.359-.011.457.157.489.493.177,1.859.181,1.862-1.662,1.892-.864.014-.864.014-.883.831-.032,1.417-.032,1.417-1.414,1.417Z" transform="translate(-130.302 -116.953)" fill="#366ee7"/>
    <path id="Path_91" data-name="Path 91" d="M409.105,300.749c-.79,0-1.58,0-2.369.016-.686.015-.769.112-.781.648s.322.6.741.591c.72-.008,1.441,0,2.162,0a3.416,3.416,0,0,1-1.381,1.622,3.144,3.144,0,0,1-4.017-.7,2.549,2.549,0,0,1-.716-1.742,3.712,3.712,0,0,1,.248-1.513,3.162,3.162,0,0,1,5.855.185c.1.291.172.594.257.891" transform="translate(-235.066 -173.81)" fill="#366ee7"/>
    <path id="Path_92" data-name="Path 92" d="M179.248,161.257c.017-1.607,1.033-2.267,2.252-1.7a3.658,3.658,0,0,1,2.045,2.334,1.766,1.766,0,0,1-.494,1.983,1.593,1.593,0,0,1-1.848.029,3.2,3.2,0,0,1-1.954-2.646" transform="translate(-104.62 -93.01)" fill="#366ee7"/>
    <path id="Path_93" data-name="Path 93" d="M172.494,172.564a3.6,3.6,0,0,1-2.812-1.649,1.612,1.612,0,0,1-.164-1.752,1.63,1.63,0,0,1,1.571-.788,3.819,3.819,0,0,1,3.148,2.171c.442,1.149-.2,2-1.744,2.017" transform="translate(-98.831 -98.274)" fill="#366ee7"/>
    <path id="Path_94" data-name="Path 94" d="M172.433,180.588a3.151,3.151,0,0,1,2.551,1.24,1.458,1.458,0,0,1-.792,2.44,3.083,3.083,0,0,1-2.759-.448,1.7,1.7,0,0,1,1-3.232" transform="translate(-99.483 -105.402)" fill="#366ee7"/>
    <path id="Path_95" data-name="Path 95" d="M196.172,163.473a1.723,1.723,0,0,1-1.029,1.678,1.7,1.7,0,0,1-1.985-.4,2.794,2.794,0,0,1-.966-2.493,1.644,1.644,0,0,1,2.6-1.254,2.8,2.8,0,0,1,1.385,2.471" transform="translate(-112.161 -93.793)" fill="#366ee7"/>
    <path id="Path_96" data-name="Path 96" d="M84.756,106.586a2.53,2.53,0,1,1-2.608-2.474,2.472,2.472,0,0,1,2.608,2.474" transform="translate(-46.516 -60.765)" fill="#366ee7"/>
    <path id="Path_97" data-name="Path 97" d="M251,16.246a1.276,1.276,0,1,1-1.368-1.237A1.268,1.268,0,0,1,251,16.246" transform="translate(-145.007 -8.758)" fill="#366ee7"/>
    <path id="Path_98" data-name="Path 98" d="M78.109,291a3.068,3.068,0,0,1,3.14-3.025,3.121,3.121,0,1,1-.085,6.242A3.072,3.072,0,0,1,78.109,291" transform="translate(-45.589 -168.081)" fill="#366ee7"/>
  </g>
</svg>
